<svg viewBox="0 0 400 112" version="1.1" xmlns="http://www.w3.org/2000/svg" xmlns:xlink="http://www.w3.org/1999/xlink">
    <defs>
        <polygon id="path-1" points="0 0.098147714 111.036061 0.098147714 111.036061 111.134021 0 111.134021"></polygon>
        <polygon id="path-3" points="0 111.510903 399.596249 111.510903 399.596249 0.468933177 0 0.468933177"></polygon>
    </defs>
    <g id="Streamfields" stroke="none" stroke-width="1" fill="green" fill-rule="evenodd">
        <g id="Page-1">
            <g id="Group-3" transform="translate(0.000000, 0.373740)">
                <mask id="mask-2" fill="white">
                    <use xlink:href="#path-1"></use>
                </mask>
                <g id="Clip-2"></g>
                <path d="M55.5181243,106.125815 C38.629027,106.125815 24.888347,92.3846659 24.888347,75.4965064 C24.888347,69.7539508 26.4794373,64.3785698 29.239578,59.78068 C35.7600938,66.9009613 45.1256272,71.3741149 55.5181243,71.3741149 C65.9106213,71.3741149 75.2761547,66.9009613 81.7966706,59.78068 C84.5563423,64.3785698 86.1479015,69.7539508 86.1479015,75.4965064 L91.1561079,75.4965064 C91.1561079,68.1403517 88.9150762,61.2986166 85.0815475,55.6160844 C88.9150762,49.9335522 91.1561079,43.0918171 91.1561079,35.7361313 C91.1561079,27.3117468 88.2112075,19.5659086 83.3056975,13.4589918 C96.9849472,22.5061196 106.027855,38.0235873 106.027855,55.6165533 C106.027855,83.4674326 83.3694725,106.125815 55.5181243,106.125815 M78.7912778,55.6160844 C73.1687691,62.1881829 64.8245721,66.3659086 55.5181243,66.3659086 C46.2116764,66.3659086 37.8674795,62.1881829 32.2449707,55.6160844 C37.8674795,49.0439859 46.2116764,44.8662603 55.5181243,44.8662603 C64.8245721,44.8662603 73.1687691,49.0439859 78.7912778,55.6160844 M5.0083939,55.6165533 C5.0083939,27.7652052 27.6667761,5.10635404 55.5181243,5.10635404 C72.4076905,5.10635404 86.1479015,18.847034 86.1479015,35.7361313 C86.1479015,41.4777491 84.5563423,46.854068 81.7966706,51.4514889 C75.2761547,44.3316764 65.9106213,39.8585229 55.5181243,39.8585229 C45.1256272,39.8585229 35.7600938,44.3316764 29.239578,51.4514889 C26.4794373,46.854068 24.888347,41.4777491 24.888347,35.7361313 L19.8796717,35.7361313 C19.8796717,43.0918171 22.1207034,49.9335522 25.9547011,55.6160844 C22.1207034,61.2986166 19.8796717,68.1403517 19.8796717,75.4965064 C19.8796717,83.920422 22.8245721,91.6662603 27.730551,97.773177 C14.0508324,88.7265182 5.0083939,73.2090504 5.0083939,55.6165533 M55.5181243,0.098147714 C24.9052286,0.098147714 -0.000281359906,25.0041266 -0.000281359906,55.6165533 C-0.000281359906,86.2289801 24.9052286,111.134021 55.5181243,111.134021 C86.130551,111.134021 111.036061,86.2289801 111.036061,55.6165533 C111.036061,25.0041266 86.130551,0.098147714 55.5181243,0.098147714" id="Fill-1" fill="#000000" mask="url(#mask-2)"></path>
            </g>
            <path d="M389.61857,77.1372098 C384.95456,76.0150528 379.641547,75.4256038 379.641547,71.823728 C379.641547,68.7536225 383.124783,67.9268933 386.135803,67.9268933 C389.442251,67.9268933 392.866401,69.1667526 393.220914,73.0635873 L398.238968,73.0635873 C397.825369,65.6244314 392.452802,63.4987573 385.722673,63.4987573 C380.408722,63.4987573 374.328535,66.0380305 374.328535,72.1777726 C374.328535,78.0230246 379.346589,79.6760141 384.305557,80.7977022 C389.323611,81.9189215 394.283048,82.5688628 394.283048,86.4656975 C394.283048,90.3029777 390.032169,91.0115358 386.903447,91.0115358 C382.77027,91.0115358 378.873904,89.5944197 378.696647,85.1076671 L373.678593,85.1076671 C373.974021,92.6645252 379.75925,95.4392028 386.608488,95.4392028 C392.807315,95.4392028 399.596061,93.0776553 399.596061,85.8162251 C399.596061,79.9123564 394.637562,78.2593669 389.61857,77.1372098" id="Fill-4" fill="#000000"></path>
            <path d="M252.326471,90.5374912 C246.241594,90.5374912 241.292005,85.5869637 241.292005,79.5030246 C241.292005,73.4181477 246.241594,68.4680891 252.326471,68.4680891 C258.411348,68.4680891 263.361407,73.4181477 263.361407,79.5030246 C263.361407,85.5869637 258.411348,90.5374912 252.326471,90.5374912 M252.326471,63.4988042 C243.48755,63.4988042 236.32272,70.6641032 236.32272,79.5030246 C236.32272,88.3414771 243.48755,95.507245 252.326471,95.507245 C261.165393,95.507245 268.330692,88.3414771 268.330692,79.5030246 C268.330692,70.6641032 261.165393,63.4988042 252.326471,63.4988042" id="Fill-6" fill="#000000"></path>
            <path d="M170.873388,27.1685815 C172.066823,22.3610785 176.407268,18.7967175 181.582415,18.7967175 C186.75803,18.7967175 191.098007,22.3610785 192.291911,27.1685815 L170.873388,27.1685815 Z M181.582415,13.8302462 C173.652755,13.8302462 167.067057,19.5976553 165.806565,27.1685815 C165.656506,28.0365768 165.581477,28.9214537 165.581477,29.8311841 C165.581477,30.449238 165.614771,31.066823 165.689801,31.6675264 C165.865182,33.2534584 166.274091,34.7643611 166.883705,36.1664713 C169.337632,41.85932 174.996717,45.8325909 181.582415,45.8325909 C188.168113,45.8325909 193.827667,41.85932 196.281594,36.1664713 L190.614068,36.1664713 C188.619226,39.0128957 185.313716,40.8661196 181.582415,40.8661196 C177.851583,40.8661196 174.546073,39.0128957 172.551231,36.1664713 C171.624619,34.8478312 170.981712,33.3205158 170.706448,31.6675264 L192.458851,31.6675264 L197.475498,31.6675264 C197.550528,31.066823 197.583822,30.449238 197.583822,29.8311841 C197.583822,28.9214537 197.508792,28.0365768 197.358265,27.1685815 C196.098242,19.5976553 189.512075,13.8302462 181.582415,13.8302462 Z" id="Fill-8" fill="#000000"></path>
            <path d="M170.873388,76.840422 C172.066823,72.0324502 176.407268,68.4680891 181.582415,68.4680891 C186.75803,68.4680891 191.098007,72.0324502 192.291911,76.840422 L170.873388,76.840422 Z M181.582415,63.5016178 C173.652755,63.5016178 167.067057,69.269027 165.806565,76.840422 C165.656506,77.7084174 165.581477,78.5928253 165.581477,79.5030246 C165.581477,80.1206096 165.614771,80.7386635 165.689801,81.3393669 C165.865182,82.9252989 166.274091,84.4357327 166.883705,85.8378429 C169.337632,91.5306917 174.996717,95.5044314 181.582415,95.5044314 C188.168113,95.5044314 193.827667,91.5306917 196.281594,85.8378429 L190.614068,85.8378429 C188.619226,88.6847362 185.313716,90.5374912 181.582415,90.5374912 C177.851583,90.5374912 174.546073,88.6847362 172.551231,85.8378429 C171.624619,84.5196717 170.981712,82.9918875 170.706448,81.3393669 L192.458851,81.3393669 L197.475498,81.3393669 C197.550528,80.7386635 197.583822,80.1206096 197.583822,79.5030246 C197.583822,78.5928253 197.508792,77.7084174 197.358265,76.840422 C196.098242,69.269027 189.512075,63.5016178 181.582415,63.5016178 Z" id="Fill-10" fill="#000000"></path>
            <path d="M206.105416,27.1685815 C207.29932,22.3610785 211.639766,18.7967175 216.814912,18.7967175 C221.990059,18.7967175 226.330504,22.3610785 227.523939,27.1685815 L206.105416,27.1685815 Z M216.814912,13.8302462 C208.885252,13.8302462 202.299555,19.5976553 201.039062,27.1685815 C200.888535,28.0365768 200.813505,28.9214537 200.813505,29.8311841 C200.813505,30.449238 200.8468,31.066823 200.921829,31.6675264 C201.09721,33.2534584 201.50612,34.7643611 202.115733,36.1664713 C204.570129,41.85932 210.229215,45.8325909 216.814912,45.8325909 C223.40061,45.8325909 229.059695,41.85932 231.514091,36.1664713 L225.846565,36.1664713 C223.851254,39.0128957 220.545744,40.8661196 216.814912,40.8661196 C213.083611,40.8661196 209.778101,39.0128957 207.783259,36.1664713 C206.857116,34.8478312 206.21374,33.3205158 205.938945,31.6675264 L227.690879,31.6675264 L232.707526,31.6675264 C232.783025,31.066823 232.81585,30.449238 232.81585,29.8311841 C232.81585,28.9214537 232.740821,28.0365768 232.590293,27.1685815 C231.33027,19.5976553 224.744572,13.8302462 216.814912,13.8302462 Z" id="Fill-12" fill="#000000"></path>
            <path d="M354.632685,68.4664947 C359.12272,68.4664947 362.979226,71.1530129 364.703025,75.0020164 L369.983212,75.0020164 C368.037608,68.3567644 361.907245,63.4986166 354.632685,63.4986166 C345.793763,63.4986166 338.628933,70.6643845 338.628933,79.502837 C338.628933,88.3417585 345.793763,95.5070574 354.632685,95.5070574 C361.907245,95.5070574 368.037608,90.6493787 369.983212,84.0041266 L364.703025,84.0041266 C362.979226,87.8531301 359.12272,90.5391794 354.632685,90.5391794 C348.537491,90.5391794 343.596342,85.5980305 343.596342,79.502837 C343.596342,73.4076436 348.537491,68.4664947 354.632685,68.4664947" id="Fill-14" fill="#000000"></path>
            <mask id="mask-4" fill="white">
                <use xlink:href="#path-3"></use>
            </mask>
            <g id="Clip-17"></g>
            <polygon id="Fill-16" fill="#000000" mask="url(#mask-4)" points="327.014771 95.5071512 332.02204 95.5071512 332.02204 64.3878077 327.014771 64.3878077"></polygon>
            <polygon id="Fill-18" fill="#000000" mask="url(#mask-4)" points="327.014771 59.6089097 332.02204 59.6089097 332.02204 53.4963658 327.014771 53.4963658"></polygon>
            <path d="M154.683048,80.2502696 C154.295709,85.9857913 149.518218,90.5372567 143.686096,90.5372567 C137.601219,90.5372567 132.651161,85.5871981 132.651161,79.5027902 C132.651161,73.4183822 137.601219,68.4678546 143.686096,68.4678546 C149.518218,68.4678546 154.295709,73.01932 154.683048,78.7553107 L154.683048,80.2502696 Z M154.683048,67.8957562 C151.814584,65.1768816 147.950106,63.4985698 143.686096,63.4985698 C134.847175,63.4985698 127.681876,70.6643376 127.681876,79.5027902 C127.681876,88.3417116 134.847175,95.5070106 143.686096,95.5070106 C147.950106,95.5070106 151.814584,93.8282298 154.683048,91.1098242 L154.683048,95.5070106 L154.721032,95.5070106 C154.721032,101.591419 149.770504,106.541477 143.686096,106.541477 C139.20544,106.541477 135.347526,103.852614 133.620914,100.0083 L128.3351,100.0083 C130.280703,106.653552 136.411536,111.510762 143.686096,111.510762 C152.524549,111.510762 159.689848,104.345932 159.689848,95.5070106 L159.689848,63.4985698 L154.683048,63.4985698 L154.683048,67.8957562 Z" id="Fill-19" fill="#000000" mask="url(#mask-4)"></path>
            <path d="M154.683048,30.5800234 C154.295709,36.3150762 149.518218,40.8670106 143.686096,40.8670106 C137.601219,40.8670106 132.651161,35.916483 132.651161,29.832544 C132.651161,23.7476671 137.601219,18.7971395 143.686096,18.7971395 C149.518218,18.7971395 154.295709,23.3486049 154.683048,29.0850645 L154.683048,30.5800234 Z M154.683048,18.22551 C151.814584,15.5066354 147.950106,13.8283236 143.686096,13.8283236 C134.847175,13.8283236 127.681876,20.9936225 127.681876,29.832544 C127.681876,38.6709965 134.847175,45.8362954 143.686096,45.8362954 C147.950106,45.8362954 151.814584,44.1579836 154.683048,41.439109 L154.683048,45.8362954 L159.689848,45.8362954 L159.689848,0.468886284 L154.683048,0.468886284 L154.683048,18.22551 Z" id="Fill-20" fill="#000000" mask="url(#mask-4)"></path>
            <path d="M254.160563,40.923095 C248.370645,40.923095 243.611442,36.4396249 243.163611,30.7627198 L243.163611,29.0131301 C243.611442,23.336694 248.370645,18.8532239 254.160563,18.8532239 C260.24544,18.8532239 265.195498,23.8032825 265.195498,29.8876905 C265.195498,35.9725674 260.24544,40.923095 254.160563,40.923095 M254.160563,13.883939 C249.899836,13.883939 246.031606,15.5519343 243.163611,18.2665885 L243.163611,13.8300117 L238.156811,13.8300117 L238.156811,59.1922626 L243.163611,59.1922626 L243.163611,41.5087925 C246.031606,44.2239156 249.899836,45.8919109 254.160563,45.8919109 C262.999484,45.8919109 270.164783,38.726612 270.164783,29.8876905 C270.164783,21.049238 262.999484,13.883939 254.160563,13.883939" id="Fill-21" fill="#000000" mask="url(#mask-4)"></path>
            <path d="M216.652286,63.5761313 C213.253458,63.5761313 210.135053,64.820211 207.708324,66.8891442 L207.708324,63.4982884 L202.699179,63.4982884 L202.699179,95.5109496 L207.708324,95.5109496 L207.708324,77.7857444 C207.708324,72.7147011 211.720985,68.5848066 216.652286,68.5848066 C221.583118,68.5848066 225.588746,72.7147011 225.588746,77.7857444 L225.588746,95.5109496 L230.596952,95.5109496 L230.596952,77.7857444 C230.596952,73.8734349 229.033998,70.3193904 226.506448,67.7449472 C223.986401,65.1705041 220.502227,63.5761313 216.652286,63.5761313" id="Fill-22" fill="#000000" mask="url(#mask-4)"></path>
            <path d="M306.125111,63.5060727 C302.150434,63.5060727 298.634842,65.7381946 296.395217,69.1679719 C294.163095,65.7381946 290.64,63.5060727 286.673763,63.5060727 C283.966612,63.5060727 281.477515,64.5485111 279.455944,66.290129 L279.455944,63.4981008 L274.4468,63.4981008 L274.4468,95.510762 L279.455944,95.510762 L279.455944,77.7855569 C279.455944,75.2734818 280.280328,72.9555451 281.594279,71.2683236 C282.908699,69.5801641 284.713623,68.5152169 286.673763,68.5152169 C290.585135,68.5152169 293.890645,72.7614068 293.890645,77.7855569 L293.890645,95.510762 L298.899789,95.510762 L298.899789,77.7855569 C298.899789,75.2734818 299.724174,72.9555451 301.046096,71.2683236 C302.360985,69.5801641 304.164971,68.5152169 306.125111,68.5152169 C310.036952,68.5152169 313.342462,72.7614068 313.342462,77.7855569 L313.342462,95.510762 L318.351137,95.510762 L318.351137,77.7855569 C318.351137,69.9149824 312.85993,63.5060727 306.125111,63.5060727" id="Fill-23" fill="#000000" mask="url(#mask-4)"></path>
        </g>
    </g>
</svg>
